<svg width="869" height="258" viewBox="0 0 869 258" fill="none" xmlns="http://www.w3.org/2000/svg">
<g filter="url(#filter0_d_208_116)">
<rect x="72.3337" y="33.7604" width="724.391" height="113.383" rx="20.9968" fill="white"/>
<rect width="50.3924" height="50.3924" transform="translate(103.829 65.2557)" fill="white"/>
<path fill-rule="evenodd" clip-rule="evenodd" d="M152.206 91.0002C152.206 89.288 152.052 87.6417 151.767 86.0612H129.025V95.4015H142.02C141.461 98.4198 139.759 100.977 137.202 102.689V108.748H145.006C149.572 104.544 152.206 98.3539 152.206 91.0002Z" fill="#4285F4"/>
<path fill-rule="evenodd" clip-rule="evenodd" d="M129.025 114.597C135.544 114.597 141.01 112.435 145.005 108.747L137.202 102.689C135.04 104.138 132.274 104.994 129.025 104.994C122.736 104.994 117.413 100.746 115.514 95.0389H107.447V101.295C111.42 109.187 119.586 114.597 129.025 114.597Z" fill="#34A853"/>
<path fill-rule="evenodd" clip-rule="evenodd" d="M115.514 95.0396C115.031 93.5908 114.757 92.0433 114.757 90.4518C114.757 88.8603 115.031 87.3128 115.514 85.864V79.6079H107.447C105.812 82.8676 104.879 86.5554 104.879 90.4518C104.879 94.3481 105.812 98.0359 107.447 101.296L115.514 95.0396Z" fill="#FBBC05"/>
<path fill-rule="evenodd" clip-rule="evenodd" d="M129.025 75.9088C132.57 75.9088 135.753 77.1271 138.255 79.5198L145.181 72.5942C140.999 68.6979 135.534 66.3052 129.025 66.3052C119.586 66.3052 111.42 71.7162 107.447 79.6076L115.514 85.8637C117.413 80.1564 122.736 75.9088 129.025 75.9088Z" fill="#EA4335"/>
<path d="M211.532 94.5364C211.231 97.7215 210.056 100.209 208.005 102C205.955 103.777 203.228 104.666 199.824 104.666C197.445 104.666 195.347 104.105 193.529 102.984C191.725 101.85 190.33 100.244 189.346 98.1658C188.362 96.088 187.849 93.6752 187.808 90.9276V88.139C187.808 85.323 188.307 82.8419 189.305 80.6957C190.303 78.5496 191.731 76.8955 193.59 75.7336C195.463 74.5717 197.623 73.9907 200.07 73.9907C203.364 73.9907 206.016 74.8861 208.026 76.6768C210.035 78.4676 211.204 80.9965 211.532 84.2636H206.365C206.119 82.1174 205.49 80.5727 204.478 79.6295C203.481 78.6726 202.011 78.1942 200.07 78.1942C197.814 78.1942 196.078 79.0212 194.862 80.6752C193.659 82.3156 193.044 84.7283 193.016 87.9134V90.5585C193.016 93.7846 193.59 96.2452 194.739 97.9402C195.901 99.6353 197.596 100.483 199.824 100.483C201.861 100.483 203.392 100.025 204.417 99.109C205.442 98.1931 206.092 96.6689 206.365 94.5364H211.532ZM214.772 92.9576C214.772 90.7841 215.202 88.8293 216.064 87.0932C216.925 85.3435 218.135 84.0038 219.693 83.0743C221.251 82.1311 223.042 81.6595 225.065 81.6595C228.059 81.6595 230.485 82.6232 232.344 84.5506C234.217 86.4781 235.229 89.0343 235.379 92.2194L235.4 93.3882C235.4 95.5753 234.976 97.5301 234.128 99.2525C233.294 100.975 232.092 102.308 230.52 103.251C228.961 104.194 227.157 104.666 225.106 104.666C221.976 104.666 219.467 103.627 217.581 101.549C215.708 99.4576 214.772 96.6758 214.772 93.2036V92.9576ZM219.755 93.3882C219.755 95.671 220.226 97.4618 221.169 98.7604C222.113 100.045 223.425 100.688 225.106 100.688C226.788 100.688 228.093 100.032 229.023 98.7194C229.966 97.4071 230.437 95.4865 230.437 92.9576C230.437 90.7157 229.952 88.9386 228.982 87.6263C228.025 86.314 226.719 85.6579 225.065 85.6579C223.439 85.6579 222.147 86.3072 221.19 87.6058C220.233 88.8908 219.755 90.8182 219.755 93.3882ZM244.237 82.0696L244.381 84.6327C246.021 82.6505 248.174 81.6595 250.84 81.6595C255.46 81.6595 257.811 84.3046 257.893 89.5948V104.256H252.911V89.8819C252.911 88.4739 252.603 87.435 251.988 86.7651C251.386 86.0817 250.395 85.7399 249.015 85.7399C247.005 85.7399 245.508 86.649 244.524 88.467V104.256H239.542V82.0696H244.237ZM269.232 76.6768V82.0696H273.149V85.7604H269.232V98.1453C269.232 98.9928 269.396 99.6079 269.725 99.9907C270.066 100.36 270.668 100.544 271.529 100.544C272.103 100.544 272.684 100.476 273.272 100.339V104.194C272.137 104.509 271.044 104.666 269.991 104.666C266.164 104.666 264.25 102.554 264.25 98.3298V85.7604H260.6V82.0696H264.25V76.6768H269.232ZM282.273 104.256H277.291V82.0696H282.273V104.256ZM276.983 76.3077C276.983 75.5422 277.222 74.9066 277.701 74.4008C278.193 73.895 278.89 73.6421 279.792 73.6421C280.695 73.6421 281.392 73.895 281.884 74.4008C282.376 74.9066 282.622 75.5422 282.622 76.3077C282.622 77.0596 282.376 77.6884 281.884 78.1942C281.392 78.6863 280.695 78.9323 279.792 78.9323C278.89 78.9323 278.193 78.6863 277.701 78.1942C277.222 77.6884 276.983 77.0596 276.983 76.3077ZM292.341 82.0696L292.485 84.6327C294.125 82.6505 296.278 81.6595 298.944 81.6595C303.564 81.6595 305.915 84.3046 305.997 89.5948V104.256H301.015V89.8819C301.015 88.4739 300.707 87.435 300.092 86.7651C299.491 86.0817 298.5 85.7399 297.119 85.7399C295.109 85.7399 293.613 86.649 292.628 88.467V104.256H287.646V82.0696H292.341ZM324.534 102.082C323.071 103.805 320.993 104.666 318.3 104.666C315.894 104.666 314.069 103.962 312.825 102.554C311.595 101.146 310.98 99.109 310.98 96.4434V82.0696H315.963V96.3819C315.963 99.1978 317.131 100.606 319.469 100.606C321.889 100.606 323.522 99.7378 324.37 98.0017V82.0696H329.352V104.256H324.657L324.534 102.082ZM344.198 104.666C341.04 104.666 338.477 103.675 336.508 101.693C334.554 99.6968 333.576 97.0448 333.576 93.7368V93.1216C333.576 90.9071 334 88.9318 334.848 87.1957C335.709 85.446 336.912 84.0859 338.456 83.1153C340.001 82.1447 341.723 81.6595 343.624 81.6595C346.645 81.6595 348.975 82.6232 350.616 84.5506C352.27 86.4781 353.097 89.2052 353.097 92.732V94.7415H338.6C338.75 96.5732 339.359 98.0222 340.425 99.0885C341.505 100.155 342.858 100.688 344.485 100.688C346.768 100.688 348.627 99.7651 350.062 97.9197L352.748 100.483C351.86 101.809 350.67 102.841 349.18 103.579C347.704 104.304 346.043 104.666 344.198 104.666ZM343.603 85.6579C342.236 85.6579 341.129 86.1363 340.281 87.0932C339.447 88.0501 338.914 89.3829 338.682 91.0916H348.176V90.7226C348.066 89.0548 347.622 87.7972 346.843 86.9497C346.064 86.0885 344.984 85.6579 343.603 85.6579ZM386.93 97.3866L390.456 82.0696H395.316L389.267 104.256H385.166L380.409 89.0207L375.734 104.256H371.633L365.564 82.0696H370.423L374.012 97.2226L378.564 82.0696H382.316L386.93 97.3866ZM403.948 104.256H398.966V82.0696H403.948V104.256ZM398.658 76.3077C398.658 75.5422 398.897 74.9066 399.376 74.4008C399.868 73.895 400.565 73.6421 401.467 73.6421C402.37 73.6421 403.067 73.895 403.559 74.4008C404.051 74.9066 404.297 75.5422 404.297 76.3077C404.297 77.0596 404.051 77.6884 403.559 78.1942C403.067 78.6863 402.37 78.9323 401.467 78.9323C400.565 78.9323 399.868 78.6863 399.376 78.1942C398.897 77.6884 398.658 77.0596 398.658 76.3077ZM415.636 76.6768V82.0696H419.553V85.7604H415.636V98.1453C415.636 98.9928 415.8 99.6079 416.128 99.9907C416.47 100.36 417.072 100.544 417.933 100.544C418.507 100.544 419.088 100.476 419.676 100.339V104.194C418.541 104.509 417.447 104.666 416.395 104.666C412.567 104.666 410.654 102.554 410.654 98.3298V85.7604H407.004V82.0696H410.654V76.6768H415.636ZM428.288 84.4891C429.914 82.6027 431.972 81.6595 434.46 81.6595C439.189 81.6595 441.588 84.3593 441.657 89.7588V104.256H436.674V89.9434C436.674 88.4124 436.339 87.3324 435.669 86.7036C435.013 86.0611 434.043 85.7399 432.758 85.7399C430.762 85.7399 429.272 86.6284 428.288 88.4055V104.256H423.305V72.7604H428.288V84.4891ZM480.534 100.38C479.454 101.788 477.957 102.855 476.043 103.579C474.129 104.304 471.956 104.666 469.523 104.666C467.021 104.666 464.807 104.098 462.879 102.964C460.952 101.829 459.462 100.209 458.409 98.1043C457.37 95.9854 456.83 93.518 456.789 90.7021V88.3645C456.789 83.8535 457.869 80.3335 460.029 77.8046C462.189 75.262 465.203 73.9907 469.071 73.9907C472.393 73.9907 475.032 74.8109 476.986 76.4513C478.941 78.0916 480.117 80.4565 480.513 83.5459H475.428C474.854 79.9507 472.769 78.1532 469.174 78.1532C466.85 78.1532 465.08 78.9939 463.863 80.6752C462.66 82.343 462.038 84.7967 461.997 88.0364V90.333C461.997 93.559 462.674 96.0675 464.027 97.8582C465.394 99.6353 467.288 100.524 469.707 100.524C472.359 100.524 474.246 99.9223 475.366 98.7194V92.8756H469.215V88.9386H480.534V100.38ZM484.819 92.9576C484.819 90.7841 485.25 88.8293 486.111 87.0932C486.972 85.3435 488.182 84.0038 489.74 83.0743C491.299 82.1311 493.089 81.6595 495.112 81.6595C498.106 81.6595 500.533 82.6232 502.392 84.5506C504.264 86.4781 505.276 89.0343 505.426 92.2194L505.447 93.3882C505.447 95.5753 505.023 97.5301 504.176 99.2525C503.342 100.975 502.139 102.308 500.567 103.251C499.008 104.194 497.204 104.666 495.154 104.666C492.023 104.666 489.515 103.627 487.628 101.549C485.756 99.4576 484.819 96.6758 484.819 93.2036V92.9576ZM489.802 93.3882C489.802 95.671 490.273 97.4618 491.217 98.7604C492.16 100.045 493.472 100.688 495.154 100.688C496.835 100.688 498.14 100.032 499.07 98.7194C500.013 97.4071 500.485 95.4865 500.485 92.9576C500.485 90.7157 499.999 88.9386 499.029 87.6263C498.072 86.314 496.767 85.6579 495.112 85.6579C493.486 85.6579 492.194 86.3072 491.237 87.6058C490.28 88.8908 489.802 90.8182 489.802 93.3882ZM508.728 92.9576C508.728 90.7841 509.158 88.8293 510.019 87.0932C510.881 85.3435 512.09 84.0038 513.649 83.0743C515.207 82.1311 516.998 81.6595 519.021 81.6595C522.015 81.6595 524.441 82.6232 526.3 84.5506C528.173 86.4781 529.185 89.0343 529.335 92.2194L529.355 93.3882C529.355 95.5753 528.932 97.5301 528.084 99.2525C527.25 100.975 526.047 102.308 524.475 103.251C522.917 104.194 521.112 104.666 519.062 104.666C515.932 104.666 513.423 103.627 511.537 101.549C509.664 99.4576 508.728 96.6758 508.728 93.2036V92.9576ZM513.71 93.3882C513.71 95.671 514.182 97.4618 515.125 98.7604C516.068 100.045 517.381 100.688 519.062 100.688C520.743 100.688 522.049 100.032 522.978 98.7194C523.922 97.4071 524.393 95.4865 524.393 92.9576C524.393 90.7157 523.908 88.9386 522.937 87.6263C521.981 86.314 520.675 85.6579 519.021 85.6579C517.394 85.6579 516.102 86.3072 515.146 87.6058C514.189 88.8908 513.71 90.8182 513.71 93.3882ZM532.698 92.9986C532.698 89.5538 533.504 86.8062 535.117 84.7557C536.744 82.6915 538.897 81.6595 541.576 81.6595C544.105 81.6595 546.094 82.5412 547.543 84.3046L547.769 82.0696H552.259V103.579C552.259 106.491 551.35 108.787 549.532 110.469C547.728 112.15 545.288 112.991 542.212 112.991C540.585 112.991 538.993 112.649 537.434 111.965C535.89 111.296 534.714 110.414 533.907 109.32L536.265 106.327C537.796 108.145 539.683 109.054 541.925 109.054C543.579 109.054 544.884 108.603 545.841 107.7C546.798 106.812 547.277 105.5 547.277 103.764V102.267C545.841 103.866 543.927 104.666 541.535 104.666C538.938 104.666 536.812 103.634 535.158 101.57C533.518 99.5054 532.698 96.6484 532.698 92.9986ZM537.66 93.4292C537.66 95.6574 538.111 97.4139 539.013 98.6989C539.929 99.9702 541.193 100.606 542.806 100.606C544.816 100.606 546.306 99.7446 547.277 98.0222V88.262C546.333 86.5806 544.857 85.7399 542.847 85.7399C541.207 85.7399 539.929 86.3892 539.013 87.6879C538.111 88.9865 537.66 90.9003 537.66 93.4292ZM562.696 104.256H557.713V72.7604H562.696V104.256ZM577.911 104.666C574.753 104.666 572.19 103.675 570.221 101.693C568.267 99.6968 567.289 97.0448 567.289 93.7368V93.1216C567.289 90.9071 567.713 88.9318 568.56 87.1957C569.422 85.446 570.625 84.0859 572.169 83.1153C573.714 82.1447 575.436 81.6595 577.336 81.6595C580.357 81.6595 582.688 82.6232 584.329 84.5506C585.983 86.4781 586.81 89.2052 586.81 92.732V94.7415H572.313C572.463 96.5732 573.071 98.0222 574.138 99.0885C575.218 100.155 576.571 100.688 578.198 100.688C580.48 100.688 582.34 99.7651 583.775 97.9197L586.461 100.483C585.572 101.809 584.383 102.841 582.893 103.579C581.417 104.304 579.756 104.666 577.911 104.666ZM577.316 85.6579C575.949 85.6579 574.842 86.1363 573.994 87.0932C573.16 88.0501 572.627 89.3829 572.395 91.0916H581.888V90.7226C581.779 89.0548 581.335 87.7972 580.556 86.9497C579.776 86.0885 578.697 85.6579 577.316 85.6579Z" fill="black" fill-opacity="0.54"/>
</g>
<defs>
<filter id="filter0_d_208_116" x="0.858116" y="0.771694" width="867.342" height="256.334" filterUnits="userSpaceOnUse" color-interpolation-filters="sRGB">
<feFlood flood-opacity="0" result="BackgroundImageFix"/>
<feColorMatrix in="SourceAlpha" type="matrix" values="0 0 0 0 0 0 0 0 0 0 0 0 0 0 0 0 0 0 127 0" result="hardAlpha"/>
<feOffset dy="38.4869"/>
<feGaussianBlur stdDeviation="35.7378"/>
<feColorMatrix type="matrix" values="0 0 0 0 0 0 0 0 0 0 0 0 0 0 0 0 0 0 0.07 0"/>
<feBlend mode="normal" in2="BackgroundImageFix" result="effect1_dropShadow_208_116"/>
<feBlend mode="normal" in="SourceGraphic" in2="effect1_dropShadow_208_116" result="shape"/>
</filter>
</defs>
</svg>
